<svg xmlns="http://www.w3.org/2000/svg" width="830" height="200" viewBox="0 0 830 200" role="img"><style>text{font-family:-apple-system,BlinkMacSystemFont,'Segoe UI',Helvetica,Arial,sans-serif;font-variant-numeric:tabular-nums}.bg{fill:#ffffff}.bd{stroke:#d0d7de}.ti{fill:#1f2328}.tx{fill:#57606a}.mu{fill:#8c959f}.tr{fill:#eaeef2}.ac{fill:#0969da}.so{fill:#9ec5f5}.acs{stroke:#0969da}@keyframes fade{from{opacity:0;transform:translateY(4px)}to{opacity:1;transform:none}}@keyframes growx{from{transform:scaleX(0)}to{transform:scaleX(1)}}@keyframes growy{from{transform:scaleY(0)}to{transform:scaleY(1)}}.f{animation:fade .5s cubic-bezier(.2,.8,.2,1) both}.gx{animation:growx .9s cubic-bezier(.2,.8,.2,1) both}.gy{animation:growy .8s cubic-bezier(.2,.8,.2,1) both}</style><rect class="bg bd" x="0.5" y="0.5" width="406" height="199" rx="6" stroke-width="1"/><rect class="bg bd" x="423.5" y="0.5" width="406" height="199" rx="6" stroke-width="1"/><g class="f"><path class="ac" transform="translate(20,17) scale(0.671)" d="M8.7 5.3 3.4 10.6a2 2 0 0 0 0 2.8l5.3 5.3 1.4-1.4L4.8 12l5.3-5.3zm6.6 0-1.4 1.4 5.3 5.3-5.3 5.3 1.4 1.4 5.3-5.3a2 2 0 0 0 0-2.8z"/><text class="ti" x="42" y="30" font-size="14" font-weight="600">This Week&#x27;s Languages</text></g><text class="mu f" x="20" y="46" font-size="10.5" style="animation-delay:0.10s">last 7 days · lines changed by me</text><g class="f" style="animation-delay:0.15s"><circle cx="24" cy="72.5" r="4" fill="#00ADD8"/><text class="tx" x="34" y="76.5" font-size="11" font-weight="500">Go</text><rect class="tr" x="118" y="68" width="132" height="9" rx="4.5"/><rect class="gx" x="118" y="68" width="64.4" height="9" rx="4.5" fill="#00ADD8" style="transform-origin:118px 68px;animation-delay:0.15s"/><text class="ti" x="258" y="76.5" font-size="11" font-weight="600">48.8%</text><text x="387" y="76.5" font-size="10" text-anchor="end"><tspan fill="#3fb950">+25.04k</tspan> <tspan fill="#f85149">−4.17k</tspan></text></g><g class="f" style="animation-delay:0.23s"><circle cx="24" cy="96.5" r="4" fill="#3178c6"/><text class="tx" x="34" y="100.5" font-size="11" font-weight="500">TypeScript</text><rect class="tr" x="118" y="92" width="132" height="9" rx="4.5"/><rect class="gx" x="118" y="92" width="33.4" height="9" rx="4.5" fill="#3178c6" style="transform-origin:118px 92px;animation-delay:0.23s"/><text class="ti" x="258" y="100.5" font-size="11" font-weight="600">25.3%</text><text x="387" y="100.5" font-size="10" text-anchor="end"><tspan fill="#3fb950">+13.81k</tspan> <tspan fill="#f85149">−1.32k</tspan></text></g><g class="f" style="animation-delay:0.31s"><circle cx="24" cy="120.5" r="4" fill="#663399"/><text class="tx" x="34" y="124.5" font-size="11" font-weight="500">CSS</text><rect class="tr" x="118" y="116" width="132" height="9" rx="4.5"/><rect class="gx" x="118" y="116" width="20.2" height="9" rx="4.5" fill="#663399" style="transform-origin:118px 116px;animation-delay:0.31s"/><text class="ti" x="258" y="124.5" font-size="11" font-weight="600">15.3%</text><text x="387" y="124.5" font-size="10" text-anchor="end"><tspan fill="#3fb950">+4.66k</tspan> <tspan fill="#f85149">−4.49k</tspan></text></g><g class="f" style="animation-delay:0.39s"><circle cx="24" cy="144.5" r="4" fill="#3572A5"/><text class="tx" x="34" y="148.5" font-size="11" font-weight="500">Python</text><rect class="tr" x="118" y="140" width="132" height="9" rx="4.5"/><rect class="gx" x="118" y="140" width="6.3" height="9" rx="4.5" fill="#3572A5" style="transform-origin:118px 140px;animation-delay:0.39s"/><text class="ti" x="258" y="148.5" font-size="11" font-weight="600">4.7%</text><text x="387" y="148.5" font-size="10" text-anchor="end"><tspan fill="#3fb950">+2.84k</tspan> <tspan fill="#f85149">−0</tspan></text></g><g class="f" style="animation-delay:0.47s"><circle cx="24" cy="168.5" r="4" fill="#f1e05a"/><text class="tx" x="34" y="172.5" font-size="11" font-weight="500">JavaScript</text><rect class="tr" x="118" y="164" width="132" height="9" rx="4.5"/><rect class="gx" x="118" y="164" width="5.0" height="9" rx="4.5" fill="#f1e05a" style="transform-origin:118px 164px;animation-delay:0.47s"/><text class="ti" x="258" y="172.5" font-size="11" font-weight="600">3.7%</text><text x="387" y="172.5" font-size="10" text-anchor="end"><tspan fill="#3fb950">+955</tspan> <tspan fill="#f85149">−1.28k</tspan></text></g><g class="f"><path class="ac" transform="translate(443,17) scale(0.671)" d="M8.7 5.3 3.4 10.6a2 2 0 0 0 0 2.8l5.3 5.3 1.4-1.4L4.8 12l5.3-5.3zm6.6 0-1.4 1.4 5.3 5.3-5.3 5.3 1.4 1.4 5.3-5.3a2 2 0 0 0 0-2.8z"/><text class="ti" x="465" y="30" font-size="14" font-weight="600">I Mostly Code in Python</text></g><text class="mu f" x="443" y="46" font-size="10.5" style="animation-delay:0.20s">last 365 days · lines changed by me</text><g class="f" style="animation-delay:0.25s"><circle cx="447" cy="72.5" r="4" fill="#3572A5"/><text class="tx" x="457" y="76.5" font-size="11" font-weight="500">Python</text><rect class="tr" x="541" y="68" width="132" height="9" rx="4.5"/><rect class="gx" x="541" y="68" width="27.5" height="9" rx="4.5" fill="#3572A5" style="transform-origin:541px 68px;animation-delay:0.25s"/><text class="ti" x="681" y="76.5" font-size="11" font-weight="600">20.8%</text><text x="810" y="76.5" font-size="10" text-anchor="end"><tspan fill="#3fb950">+129.1k</tspan> <tspan fill="#f85149">−36.02k</tspan></text></g><g class="f" style="animation-delay:0.33s"><circle cx="447" cy="96.5" r="4" fill="#3178c6"/><text class="tx" x="457" y="100.5" font-size="11" font-weight="500">TypeScript</text><rect class="tr" x="541" y="92" width="132" height="9" rx="4.5"/><rect class="gx" x="541" y="92" width="27.0" height="9" rx="4.5" fill="#3178c6" style="transform-origin:541px 92px;animation-delay:0.33s"/><text class="ti" x="681" y="100.5" font-size="11" font-weight="600">20.5%</text><text x="810" y="100.5" font-size="10" text-anchor="end"><tspan fill="#3fb950">+110.1k</tspan> <tspan fill="#f85149">−52.36k</tspan></text></g><g class="f" style="animation-delay:0.41s"><circle cx="447" cy="120.5" r="4" fill="#41b883"/><text class="tx" x="457" y="124.5" font-size="11" font-weight="500">Vue</text><rect class="tr" x="541" y="116" width="132" height="9" rx="4.5"/><rect class="gx" x="541" y="116" width="23.4" height="9" rx="4.5" fill="#41b883" style="transform-origin:541px 116px;animation-delay:0.41s"/><text class="ti" x="681" y="124.5" font-size="11" font-weight="600">17.7%</text><text x="810" y="124.5" font-size="10" text-anchor="end"><tspan fill="#3fb950">+94.03k</tspan> <tspan fill="#f85149">−46.48k</tspan></text></g><g class="f" style="animation-delay:0.49s"><circle cx="447" cy="144.5" r="4" fill="#00ADD8"/><text class="tx" x="457" y="148.5" font-size="11" font-weight="500">Go</text><rect class="tr" x="541" y="140" width="132" height="9" rx="4.5"/><rect class="gx" x="541" y="140" width="17.1" height="9" rx="4.5" fill="#00ADD8" style="transform-origin:541px 140px;animation-delay:0.49s"/><text class="ti" x="681" y="148.5" font-size="11" font-weight="600">13.0%</text><text x="810" y="148.5" font-size="10" text-anchor="end"><tspan fill="#3fb950">+91.06k</tspan> <tspan fill="#f85149">−11.97k</tspan></text></g><g class="f" style="animation-delay:0.57s"><circle cx="447" cy="168.5" r="4" fill="#F05138"/><text class="tx" x="457" y="172.5" font-size="11" font-weight="500">Swift</text><rect class="tr" x="541" y="164" width="132" height="9" rx="4.5"/><rect class="gx" x="541" y="164" width="16.9" height="9" rx="4.5" fill="#F05138" style="transform-origin:541px 164px;animation-delay:0.57s"/><text class="ti" x="681" y="172.5" font-size="11" font-weight="600">12.8%</text><text x="810" y="172.5" font-size="10" text-anchor="end"><tspan fill="#3fb950">+94.38k</tspan> <tspan fill="#f85149">−7.26k</tspan></text></g></svg>